:FULLY-SPECIFIED
:FORCE-ALL-JOINTS-BE-3DOF
:DEGREES
291
root 10.066 16.8803 3.95899 5.63377 1.83536 3.37999
lfemur -1.70529 4.80445 -29.2817
ltibia 16.7148 0 0
lfoot -18.4505 4.00967 0
ltoes -3.57828 0 0
rfemur -37.4177 1.534 14.5722
rtibia 40.508 0 0
rfoot -21.3779 -11.3483 0
rtoes -23.2964 0 0
lowerback -5.89827 -3.65991 -4.68449
upperback -0.151327 -4.63272 2.09349
thorax 3.69645 -2.40703 4.35975
lowerneck -21.6301 -3.96207 -11.5209
upperneck 23.0127 -4.74745 11.2219
head 11.6676 -1.75961 5.3705
lclavicle 1.8222e-14 3.3278e-15 0
lhumerus -11.2631 -22.4872 86.4033
lradius 27.6827 0 0
lwrist 7.74662 0 0
lhand -15.8012 -23.571 0
lfingers 7.12502 0 0
lthumb 10.392 6.15196 0
rclavicle 1.8222e-14 3.3278e-15 0
rhumerus -47.7909 7.95945 -83.3551
rradius 40.3155 0 0
rwrist -23.3285 0 0
rhand -31.0393 -24.3227 0
rfingers 7.12502 0 0
rthumb -4.32103 -54.259 0
292
root 10.0651 16.8821 4.17807 5.92382 2.50918 3.44933
lfemur -0.0152075 4.59755 -29.1731
ltibia 14.439 0 0
lfoot -17.8582 3.60336 0
ltoes -2.83681 0 0
rfemur -38.1554 2.3923 13.7508
rtibia 37.702 0 0
rfoot -21.6724 -10.7633 0
rtoes -22.2964 0 0
lowerback -6.29133 -3.81135 -4.80308
upperback -0.157085 -4.80919 2.09404
thorax 3.94147 -2.50184 4.38275
lowerneck -21.6334 -4.09546 -11.5961
upperneck 22.9751 -4.94421 11.3475
head 11.6879 -1.83919 5.39832
lclavicle 2.00245e-14 4.42296e-15 0
lhumerus -10.7379 -24.3023 86.5526
lradius 28.5487 0 0
lwrist 9.68607 0 0
lhand -15.6528 -22.9417 0
lfingers 7.12502 0 0
lthumb 10.5352 6.77393 0
rclavicle 2.00245e-14 4.42296e-15 0
rhumerus -47.9476 7.84571 -83.4116
rradius 39.882 0 0
rwrist -23.039 0 0
rhand -31.1562 -26.4535 0
rfingers 7.12502 0 0
rthumb -4.43396 -56.3875 0
293
root 10.0639 16.8836 4.35075 6.18543 3.06333 3.49336
lfemur 1.27698 4.41948 -29.0726
ltibia 12.6438 0 0
lfoot -17.3672 3.25992 0
ltoes -2.11596 0 0
rfemur -38.7459 3.04464 13.1163
rtibia 35.4311 0 0
rfoot -21.9117 -10.2058 0
rtoes -21.3392 0 0
lowerback -6.63233 -3.9331 -4.88759
upperback -0.161714 -4.95084 2.0983
thorax 4.15195 -2.5781 4.39766
lowerneck -21.6554 -4.20884 -11.66
upperneck 22.9322 -5.11132 11.4651
head 11.705 -1.90479 5.42577
lclavicle 2.22087e-14 5.77212e-15 0
lhumerus -10.3126 -25.7886 86.6715
lradius 29.2485 0 0
lwrist 11.2842 0 0
lhand -15.5237 -22.4071 0
lfingers 7.12502 0 0
lthumb 10.6596 7.30215 0
rclavicle 2.22087e-14 5.77212e-15 0
rhumerus -48.0632 7.76238 -83.4604
rradius 39.5437 0 0
rwrist -22.8054 0 0
rhand -31.2376 -28.43 0
rfingers 7.12502 0 0
rthumb -4.5126 -58.3622 0
294
root 10.0634 16.8848 4.43142 6.34463 3.3432 3.49977
lfemur 1.80434 4.3308 -29.0104
ltibia 11.862 0 0
lfoot -17.1441 3.0608 0
ltoes -1.59284 0 0
rfemur -39.0415 3.25812 12.8859
rtibia 34.2574 0 0
rfoot -21.9882 -9.78175 0
rtoes -20.7808 0 0
lowerback -6.8317 -3.99121 -4.91319
upperback -0.158767 -5.01825 2.10445
thorax 4.27729 -2.61483 4.39871
lowerneck -21.7098 -4.27387 -11.6902
upperneck 22.9061 -5.20684 11.5411
head 11.7223 -1.93938 5.44385
lclavicle 2.47643e-14 6.85623e-15 0
lhumerus -10.0644 -26.551 86.7161
lradius 29.5763 0 0
lwrist 12.1117 0 0
lhand -15.4641 -22.1179 0
lfingers 7.12502 0 0
lthumb 10.7172 7.58848 0
rclavicle 2.47643e-14 6.85623e-15 0
rhumerus -48.1109 7.7435 -83.4966
rradius 39.4071 0 0
rwrist -22.7177 0 0
rhand -31.2777 -29.7739 0
rfingers 7.12502 0 0
rthumb -4.55128 -59.7051 0
295
root 10.0641 16.8855 4.3745 6.32741 3.19415 3.45623
lfemur 1.19993 4.39203 -29.0169
ltibia 12.6263 0 0
lfoot -17.3556 3.08744 0
ltoes -1.44458 0 0
rfemur -38.895 2.79986 13.2765
rtibia 34.7426 0 0
rfoot -21.7945 -9.59742 0
rtoes -20.9777 0 0
lowerback -6.79984 -3.95179 -4.85507
upperback -0.141798 -4.972 2.11064
thorax 4.26687 -2.59104 4.38017
lowerneck -21.8102 -4.26223 -11.6639
upperneck 22.9186 -5.18885 11.5423
head 11.7433 -1.92592 5.4436
lclavicle 2.76808e-14 7.15625e-15 0
lhumerus -10.0708 -26.1945 86.6425
lradius 29.3266 0 0
lwrist 11.739 0 0
lhand -15.5237 -22.2248 0
lfingers 7.12502 0 0
lthumb 10.6597 7.48477 0
rclavicle 2.76808e-14 7.15625e-15 0
rhumerus -48.0638 7.8231 -83.515
rradius 39.5789 0 0
rwrist -22.8658 0 0
rhand -31.2705 -30.0071 0
rfingers 7.12502 0 0
rthumb -4.54436 -59.9384 0
296
root 10.0609 16.8825 4.55855 6.46675 3.71933 3.57234
lfemur 2.94603 4.17716 -28.9611
ltibia 10.354 0 0
lfoot -16.6994 2.91625 0
ltoes -1.4785 0 0
rfemur -39.4085 4.16018 12.0834
rtibia 33.0495 0 0
rfoot -22.4448 -9.95338 0
rtoes -20.1086 0 0
lowerback -6.98476 -4.08042 -5.01974
upperback -0.191788 -5.12143 2.09942
thorax 4.35051 -2.66879 4.43134
lowerneck -21.5597 -4.32311 -11.7577
upperneck 22.8481 -5.28103 11.5912
head 11.6854 -1.97674 5.45982
lclavicle 2.10423e-14 7.22067e-15 0
lhumerus -10.0061 -27.4623 86.8846
lradius 30.1532 0 0
lwrist 13.0427 0 0
lhand -15.2917 -21.8154 0
lfingers 7.12502 0 0
lthumb 10.8834 7.88169 0
rclavicle 2.10423e-14 7.22067e-15 0
rhumerus -48.202 7.6043 -83.4732
rradius 39.0572 0 0
rwrist -22.4154 0 0
rhand -31.2471 -30.1074 0
rfingers 7.12502 0 0
rthumb -4.52177 -60.039 0
297
root 10.0558 16.8763 4.79512 6.61091 4.37763 3.74494
lfemur 5.27508 3.88614 -28.9013
ltibia 7.36088 0 0
lfoot -15.8151 2.75293 0
ltoes -1.72386 0 0
rfemur -40.0312 6.16368 10.3419
rtibia 31.1655 0 0
rfoot -23.4701 -10.7628 0
rtoes -19.0031 0 0
lowerback -7.16941 -4.2451 -5.25741
upperback -0.27435 -5.312 2.08072
thorax 4.41163 -2.76706 4.51014
lowerneck -21.1409 -4.38225 -11.8927
upperneck 22.7361 -5.37237 11.6379
head 11.5803 -2.03584 5.48016
lclavicle 9.47357e-15 7.009e-15 0
lhumerus -10.0835 -28.9841 87.2501
lradius 31.2565 0 0
lwrist 14.561 0 0
lhand -14.936 -21.3445 0
lfingers 7.12502 0 0
lthumb 11.2264 8.33325 0
rclavicle 9.47357e-15 7.009e-15 0
rhumerus -48.3823 7.27958 -83.3834
rradius 38.3278 0 0
rwrist -21.759 0 0
rhand -31.1485 -29.6255 0
rfingers 7.12502 0 0
rthumb -4.42657 -59.5587 0
